<?xml version="1.0" encoding="UTF-8" standalone="no" ?>
<!DOCTYPE svg PUBLIC "-//W3C//DTD SVG 1.1//EN" "http://www.w3.org/Graphics/SVG/1.1/DTD/svg11.dtd">
<svg xmlns="http://www.w3.org/2000/svg" xmlns:xlink="http://www.w3.org/1999/xlink" version="1.1" width="513" height="513" viewBox="-13.297619047619037 0.2976190476190368 513 513" xml:space="preserve">
<desc>Created with Fabric.js 4.6.0</desc>
<defs>
</defs>
<g transform="matrix(1 0 0 1 243.2 256.8)" id="osNhWgDVGK-Zb_fRCVX10"  >
<path style="stroke: none; stroke-width: 1; stroke-dasharray: none; stroke-linecap: butt; stroke-dashoffset: 0; stroke-linejoin: miter; stroke-miterlimit: 4; fill: rgb(1,44,73); fill-rule: nonzero; opacity: 1;" vector-effect="non-scaling-stroke"  transform=" translate(-256, -256)" d="M 256 0 C 114.6 0 0 114.6 0 256 C 0 397.4 114.6 512 256 512 C 397.4 512 512 397.4 512 256 C 512 114.60000000000002 397.4 0 256 0 z M 256 128 C 273.67 128 288 142.33 288 160 C 288 177.67000000000002 273.67 192 256 192 C 238.32999999999998 192 224 177.7 224 160 C 224 142.3 238.3 128 256 128 z M 296 384 L 216 384 C 202.8 384 192 373.3 192 360 C 192 346.7 202.75 336 216 336 L 232 336 L 232 272 L 224 272 C 210.75 272 200 261.25 200 248 C 200 234.75 210.8 224 224 224 L 256 224 C 269.25 224 280 234.75 280 248 L 280 336 L 296 336 C 309.25 336 320 346.75 320 360 C 320 373.25 309.3 384 296 384 z" stroke-linecap="round" />
</g>
</svg>