<?xml version="1.0" encoding="UTF-8" standalone="no" ?>
<!DOCTYPE svg PUBLIC "-//W3C//DTD SVG 1.1//EN" "http://www.w3.org/Graphics/SVG/1.1/DTD/svg11.dtd">
<svg xmlns="http://www.w3.org/2000/svg" xmlns:xlink="http://www.w3.org/1999/xlink" version="1.1" width="385" height="513" viewBox="57.5 -6.5 385 513" xml:space="preserve">
<desc>Created with Fabric.js 4.6.0</desc>
<defs>
</defs>
<g transform="matrix(1 0 0 1 250 250)" id="h06Jxu9-X0-1cyCaxgbL9"  >
<path style="stroke: none; stroke-width: 1; stroke-dasharray: none; stroke-linecap: butt; stroke-dashoffset: 0; stroke-linejoin: miter; stroke-miterlimit: 4; fill: rgb(1,44,73); fill-rule: nonzero; opacity: 1;" vector-effect="non-scaling-stroke"  transform=" translate(-192, -256)" d="M 256 0 L 256 128 L 384 128 L 256 0 z M 224 128 L 224 0 L 48 0 C 21.49 0 0 21.49 0 48 L 0 464 C 0 490.5 21.49 512 48 512 L 336 512 C 362.51 512 384 490.51 384 464 L 384 160 L 256.9 160 C 238.3 160 224 145.7 224 128 z M 272 416 L 112 416 C 103.2 416 96 408.8 96 400 C 96 391.2 103.2 384 112 384 L 272 384 C 280.836 384 288 391.162 288 400 C 288 408.8 280.8 416 272 416 z M 272 352 L 112 352 C 103.2 352 96 344.8 96 336 C 96 327.2 103.2 320 112 320 L 272 320 C 280.836 320 288 327.162 288 336 C 288 344.8 280.8 352 272 352 z M 288 272 C 288 280.8 280.8 288 272 288 L 112 288 C 103.2 288 96 280.8 96 272 C 96 263.2 103.2 256 112 256 L 272 256 C 280.8 256 288 263.2 288 272 z" stroke-linecap="round" />
</g>
</svg>